<?xml version="1.0" encoding="UTF-8"?>
<svg id="Layer_1" data-name="Layer 1" xmlns="http://www.w3.org/2000/svg" viewBox="0 0 90.52 60.31">
  <defs>
    <style>
      .cls-1 {
        fill: #d41f26;
      }

      .cls-2 {
        fill: #31409a;
      }

      .cls-3 {
        fill: #fff;
      }
    </style>
  </defs>
  <path class="cls-1" d="M86.41,0l-33.8,14.78,12.86-3.55c8.08-2.23,16.44,2.52,18.66,10.6l2.4,8.69-.11-30.52Z"/>
  <rect class="cls-3" x="14.52" y="5.59" width="76" height="54.72" rx="15.27" ry="15.27"/>
  <rect class="cls-2" x="14.52" y="8.31" width="72" height="52" rx="14.49" ry="14.49"/>
  <circle class="cls-1" cx="26" cy="34.31" r="26"/>
  <g>
    <path class="cls-3" d="M49.13,33.83c0,10.07-7.39,19.93-19.98,19.93-11.08,0-19.88-8.65-19.88-19.63S18.43,14.86,29.3,14.86c8.45,0,16.59,5.72,18.72,13.25h-10.72c-1.77-3.09-4.65-4.86-8.25-4.86-6.02,0-10.22,4.86-10.22,10.88s3.95,11.23,10.27,11.23c4.45,0,7.79-2.17,8.95-6.02h-11.18v-7.64h22.26v2.12Z"/>
    <path class="cls-3" d="M68.76,26.49c-.4-2.68-1.52-3.64-3.39-3.64-1.77,0-3.29,1.26-3.29,2.93,0,2.23,2.02,3.24,6.12,5.01,8.25,3.54,10.32,6.53,10.32,11.43,0,7.23-4.96,11.48-13.05,11.48s-13.51-4.25-13.51-12.29v-.81h9.51c.05,3.09,1.57,5.11,3.95,5.11,1.97,0,3.59-1.57,3.59-3.59,0-2.98-4.15-4.3-7.54-5.67-6.12-2.48-8.9-5.72-8.9-10.57,0-6.37,6.17-11.03,13.05-11.03,2.48,0,4.65.56,6.63,1.57,4,2.07,5.92,5.06,5.97,10.07h-9.46Z"/>
  </g>
</svg>